<?xml version="1.0" encoding="utf-8"?>
<!-- Generator: Adobe Illustrator 24.3.0, SVG Export Plug-In . SVG Version: 6.00 Build 0)  -->
<svg version="1.1" id="圖層_1" xmlns="http://www.w3.org/2000/svg" xmlns:xlink="http://www.w3.org/1999/xlink" x="0px" y="0px"
	 viewBox="0 0 200 80" style="enable-background:new 0 0 200 80;" xml:space="preserve">
<style type="text/css">
	.st0{fill:#FFFFFF;stroke:#FFFFFF;stroke-width:0.75;stroke-miterlimit:10;}
	.st1{fill:#FFFFFF;}
</style>
<g>
	<g>
		<path class="st0" d="M121.3,64.6v5.2c0,0.3,0,0.6-0.1,0.9c-0.1,0.3-0.2,0.5-0.4,0.8c-0.2,0.2-0.4,0.4-0.7,0.5
			c-0.3,0.1-0.6,0.2-1,0.2c-0.1,0-0.3,0-0.5,0s-0.3,0-0.4-0.1c-0.1,0-0.3-0.1-0.4-0.1s-0.2-0.1-0.3-0.2v-1c0.2,0.2,0.5,0.3,0.8,0.4
			c0.3,0.1,0.6,0.1,0.9,0.1c0.4,0,0.7-0.1,1-0.4s0.3-0.6,0.3-1.1v-4.3h-2.9v-0.9H121.3z"/>
		<path class="st0" d="M127.4,72.2l0-0.8c-0.3,0.3-0.6,0.5-1,0.7c-0.3,0.1-0.7,0.2-1,0.2c-0.3,0-0.6,0-0.8-0.1
			c-0.2-0.1-0.4-0.2-0.6-0.3s-0.3-0.3-0.3-0.5c-0.1-0.2-0.1-0.4-0.1-0.7c0-0.6,0.2-1,0.6-1.4s1.1-0.5,1.9-0.5h1.2v-0.5
			c0-0.3-0.1-0.6-0.3-0.8s-0.6-0.3-1-0.3c-0.3,0-0.6,0-1,0.1c-0.3,0.1-0.6,0.2-1,0.3v-0.9c0.1,0,0.3-0.1,0.4-0.1
			c0.2,0,0.3-0.1,0.5-0.1c0.2,0,0.4-0.1,0.5-0.1c0.2,0,0.4,0,0.6,0c0.3,0,0.7,0,0.9,0.1c0.3,0.1,0.5,0.2,0.7,0.4
			c0.2,0.2,0.3,0.4,0.4,0.6c0.1,0.2,0.2,0.5,0.2,0.8v4H127.4z M127.3,69.5H126c-0.2,0-0.5,0-0.6,0.1c-0.2,0-0.3,0.1-0.4,0.2
			c-0.1,0.1-0.2,0.2-0.3,0.3s-0.1,0.3-0.1,0.4c0,0.1,0,0.2,0.1,0.3c0,0.1,0.1,0.2,0.2,0.3c0.1,0.1,0.2,0.1,0.3,0.2s0.3,0.1,0.4,0.1
			c0.2,0,0.5-0.1,0.8-0.2c0.3-0.1,0.6-0.4,0.9-0.7V69.5z"/>
		<path class="st0" d="M134.8,70.6c0,0.2,0,0.4-0.1,0.5c-0.1,0.2-0.2,0.3-0.3,0.4c-0.1,0.1-0.3,0.2-0.4,0.3
			c-0.2,0.1-0.3,0.2-0.5,0.2c-0.2,0.1-0.4,0.1-0.5,0.1c-0.2,0-0.4,0-0.6,0c-0.4,0-0.8,0-1.1-0.1s-0.6-0.1-1-0.2v-0.9
			c0.3,0.1,0.7,0.2,1,0.2s0.7,0.1,1,0.1c0.5,0,0.8-0.1,1.1-0.2c0.2-0.1,0.3-0.3,0.3-0.6c0-0.1,0-0.2-0.1-0.3c0-0.1-0.1-0.2-0.2-0.2
			c-0.1-0.1-0.2-0.2-0.4-0.2c-0.2-0.1-0.5-0.2-0.8-0.3c-0.3-0.1-0.5-0.2-0.7-0.3s-0.4-0.2-0.6-0.3c-0.2-0.1-0.3-0.3-0.4-0.5
			c-0.1-0.2-0.1-0.4-0.1-0.6c0-0.2,0-0.3,0.1-0.5c0.1-0.2,0.2-0.4,0.4-0.5s0.4-0.3,0.7-0.4c0.3-0.1,0.7-0.2,1.2-0.2
			c0.2,0,0.5,0,0.8,0c0.3,0,0.6,0.1,0.9,0.1v0.9c-0.3-0.1-0.6-0.1-0.9-0.2s-0.5-0.1-0.7-0.1c-0.2,0-0.5,0-0.6,0.1s-0.3,0.1-0.4,0.2
			s-0.2,0.1-0.2,0.2c0,0.1-0.1,0.2-0.1,0.3s0,0.2,0.1,0.3s0.1,0.2,0.2,0.2c0.1,0.1,0.3,0.2,0.5,0.2c0.2,0.1,0.5,0.2,0.8,0.3
			c0.3,0.1,0.6,0.2,0.9,0.3c0.2,0.1,0.4,0.2,0.6,0.4s0.3,0.3,0.3,0.5C134.7,70.2,134.8,70.4,134.8,70.6z"/>
		<path class="st0" d="M141.7,69.2c0,0.4-0.1,0.9-0.2,1.2c-0.1,0.4-0.3,0.7-0.5,1c-0.2,0.3-0.5,0.5-0.9,0.6s-0.7,0.2-1.2,0.2
			c-0.4,0-0.8-0.1-1.1-0.2c-0.3-0.1-0.6-0.3-0.8-0.6c-0.2-0.2-0.4-0.6-0.5-0.9c-0.1-0.4-0.2-0.8-0.2-1.3c0-0.4,0.1-0.9,0.2-1.2
			c0.1-0.4,0.3-0.7,0.5-1c0.2-0.3,0.5-0.5,0.9-0.6c0.3-0.1,0.7-0.2,1.2-0.2c0.4,0,0.8,0.1,1.1,0.2c0.3,0.1,0.6,0.3,0.8,0.6
			c0.2,0.2,0.4,0.6,0.5,0.9C141.6,68.3,141.7,68.8,141.7,69.2z M140.7,69.3c0-0.4,0-0.7-0.1-0.9c-0.1-0.3-0.2-0.5-0.3-0.7
			c-0.1-0.2-0.3-0.3-0.5-0.4s-0.4-0.1-0.7-0.1c-0.3,0-0.6,0.1-0.8,0.2s-0.4,0.3-0.5,0.5c-0.1,0.2-0.2,0.4-0.3,0.7
			c-0.1,0.3-0.1,0.5-0.1,0.8c0,0.4,0,0.7,0.1,0.9c0.1,0.3,0.2,0.5,0.3,0.7c0.1,0.2,0.3,0.3,0.5,0.4c0.2,0.1,0.4,0.1,0.7,0.1
			c0.3,0,0.6-0.1,0.8-0.2s0.4-0.3,0.5-0.5c0.1-0.2,0.2-0.4,0.3-0.7S140.7,69.6,140.7,69.3z"/>
		<path class="st0" d="M143.1,66.4h0.9l0,0.9c0.2-0.2,0.3-0.4,0.5-0.5c0.2-0.1,0.3-0.2,0.5-0.3c0.2-0.1,0.3-0.1,0.5-0.2
			c0.2,0,0.3,0,0.5,0c0.6,0,1,0.2,1.3,0.5c0.3,0.4,0.5,0.9,0.5,1.6v3.8h-1v-3.7c0-0.5-0.1-0.8-0.3-1s-0.4-0.3-0.8-0.3
			c-0.1,0-0.2,0-0.4,0.1c-0.1,0-0.2,0.1-0.4,0.2s-0.3,0.2-0.4,0.4c-0.1,0.2-0.3,0.3-0.5,0.6v3.8h-1V66.4z"/>
		<path class="st0" d="M160.9,71.9c-0.6,0.2-1.2,0.4-1.9,0.4c-1.1,0-1.9-0.3-2.4-1c-0.6-0.6-0.9-1.6-0.9-2.8c0-0.6,0.1-1.1,0.2-1.6
			s0.4-0.9,0.7-1.2c0.3-0.3,0.6-0.6,1.1-0.8c0.4-0.2,0.9-0.3,1.4-0.3c0.3,0,0.7,0,1,0.1c0.3,0.1,0.6,0.2,0.9,0.3v1
			c-0.3-0.1-0.6-0.3-0.8-0.3c-0.3-0.1-0.6-0.1-1-0.1c-0.4,0-0.7,0.1-1,0.2c-0.3,0.1-0.5,0.3-0.7,0.6c-0.2,0.3-0.4,0.6-0.5,0.9
			s-0.2,0.8-0.2,1.2c0,1,0.2,1.7,0.6,2.2s1,0.7,1.7,0.7c0.3,0,0.6,0,0.9-0.1c0.3-0.1,0.6-0.2,0.9-0.3V71.9z"/>
		<path class="st0" d="M164.9,70.4c0.1,0,0.3,0,0.4,0.1c0.1,0,0.2,0.1,0.3,0.2c0.1,0.1,0.2,0.2,0.2,0.3c0,0.1,0.1,0.2,0.1,0.4
			c0,0.1,0,0.3-0.1,0.4s-0.1,0.2-0.2,0.3c-0.1,0.1-0.2,0.2-0.3,0.2c-0.1,0-0.2,0.1-0.4,0.1c-0.1,0-0.3,0-0.4-0.1s-0.2-0.1-0.3-0.2
			c-0.1-0.1-0.2-0.2-0.2-0.3s-0.1-0.2-0.1-0.4c0-0.1,0-0.3,0.1-0.4c0-0.1,0.1-0.2,0.2-0.3c0.1-0.1,0.2-0.2,0.3-0.2
			S164.7,70.4,164.9,70.4z"/>
		<path class="st0" d="M180.5,72.2h-1v-3.5h-3.2v3.5h-1v-7.5h1v3.2h3.2v-3.2h1V72.2z"/>
		<path class="st0" d="M186.6,70.6c0,0.2,0,0.4-0.1,0.5s-0.2,0.3-0.3,0.4s-0.3,0.2-0.4,0.3c-0.2,0.1-0.3,0.2-0.5,0.2
			s-0.4,0.1-0.5,0.1c-0.2,0-0.4,0-0.6,0c-0.4,0-0.8,0-1.1-0.1s-0.6-0.1-1-0.2v-0.9c0.3,0.1,0.7,0.2,1,0.2s0.7,0.1,1,0.1
			c0.5,0,0.8-0.1,1.1-0.2c0.2-0.1,0.3-0.3,0.3-0.6c0-0.1,0-0.2-0.1-0.3c0-0.1-0.1-0.2-0.2-0.2c-0.1-0.1-0.2-0.2-0.4-0.2
			c-0.2-0.1-0.5-0.2-0.8-0.3c-0.3-0.1-0.5-0.2-0.7-0.3s-0.4-0.2-0.6-0.3c-0.2-0.1-0.3-0.3-0.4-0.5c-0.1-0.2-0.1-0.4-0.1-0.6
			c0-0.2,0-0.3,0.1-0.5c0.1-0.2,0.2-0.4,0.4-0.5c0.2-0.2,0.4-0.3,0.7-0.4c0.3-0.1,0.7-0.2,1.2-0.2c0.2,0,0.5,0,0.8,0
			c0.3,0,0.6,0.1,0.9,0.1v0.9c-0.3-0.1-0.6-0.1-0.9-0.2c-0.3,0-0.5-0.1-0.7-0.1c-0.2,0-0.5,0-0.6,0.1c-0.2,0-0.3,0.1-0.4,0.2
			s-0.2,0.1-0.2,0.2c0,0.1-0.1,0.2-0.1,0.3s0,0.2,0.1,0.3c0,0.1,0.1,0.2,0.2,0.2c0.1,0.1,0.3,0.2,0.5,0.2c0.2,0.1,0.5,0.2,0.8,0.3
			c0.3,0.1,0.6,0.2,0.9,0.3s0.4,0.2,0.6,0.4c0.1,0.1,0.3,0.3,0.3,0.5C186.6,70.2,186.6,70.4,186.6,70.6z"/>
		<path class="st0" d="M193.2,72.2h-0.9l0-0.9c-0.2,0.2-0.3,0.4-0.5,0.5s-0.3,0.2-0.5,0.3c-0.2,0.1-0.3,0.1-0.5,0.2s-0.3,0-0.5,0
			c-0.6,0-1-0.2-1.3-0.5c-0.3-0.3-0.5-0.9-0.5-1.6v-3.8h1v3.7c0,0.9,0.3,1.3,1,1.3c0.1,0,0.2,0,0.4-0.1c0.1,0,0.2-0.1,0.4-0.2
			c0.1-0.1,0.3-0.2,0.4-0.4s0.3-0.3,0.5-0.6v-3.8h1V72.2z"/>
	</g>
	<g>
		<g>
			<path class="st1" d="M52.5,15.9l6.7,1.5c0.5,0.1,0.8,0.3,0.8,0.7c0,0.3-0.4,0.6-1.3,0.9c-1.5,1.8-3,3.2-4.4,4.3
				c-0.1,0.1-0.1,0.1-0.1,0.1l6,1.4c0.5,0.1,0.7,0.4,0.7,0.8c0,0.3-0.5,0.7-1.5,1c-1.6,2.4-3.1,4.4-4.6,5.8l1,0.2
				c0.5,0.1,0.7,0.2,0.7,0.4c0,0.2-0.3,0.5-0.9,0.7V51L50,51.5V36.6c-0.9,0.7-1.8,1.3-2.7,1.9l-0.4-0.3c1.5-2.2,2.8-4.6,3.9-7
				c0.7-1.6,1.4-3.9,2.1-6.8c-1.6,1.1-3.3,2.1-5.1,3l-0.4-0.3c1.2-1.7,2.3-3.5,3.2-5.3C51.2,20.5,51.9,18.5,52.5,15.9z M65.5,16.3
				l7.2,1.1c0.5,0.2,0.7,0.4,0.7,0.7c0,0.3-0.4,0.6-1.3,0.9c-0.1,0.1-0.2,0.2-0.3,0.4c1.3,1.4,2.8,2.6,4.4,3.4
				c1.6,0.9,3.9,1.6,6.9,2.2v0.9c-1.4,0.8-2.4,2.7-3,5.8c-1.6-0.9-3-1.8-4.1-2.8l-0.5,0.8h-3.3v4.7h2.8l2.7-3.3l4,3.3l-0.7,1h-8.8
				v13.2c0,0.8-0.3,1.5-1,2.1c-0.7,0.6-2.6,0.9-5.7,0.9c-0.1-1.6-0.6-2.9-1.2-3.7c-0.6-0.8-1.3-1.3-2.2-1.6v-0.6h4.1v-5.9
				C66,39.9,65.8,40,65.5,40c-1.1,2.3-2.4,4.1-3.7,5.4c-1.4,1.3-3.1,2.4-5.1,3.4l-0.3-0.4c0.9-1.5,1.6-3.2,2.2-4.9
				c0.5-1.7,1-3.9,1.3-6.6l6.1,1.6v-3h-8.6l-0.4-1h9v-4.7h-2.7l-0.2-0.5c-1.9,1.4-3.9,2.4-5.8,3l-0.3-0.4c1.7-1.8,3.2-3.9,4.6-6.6
				C62.8,23.5,64.1,20.5,65.5,16.3z M64,28.7h6.6l2.3-2.6l1.7,1.3c-0.3-0.3-0.6-0.6-0.8-1c-1.3-1.7-2.2-3.6-2.8-5.8
				c-2.1,3.2-4.1,5.5-5.8,7C64.8,28.1,64.4,28.4,64,28.7z M73.6,37.5c3.7,1,6.1,2.1,7.3,3.2c1.1,1.1,1.7,2.4,1.7,3.7
				c0,1-0.3,1.9-1,2.7c-0.8,0.8-1.5,1.3-2.2,1.3c-1.3,0-2.1-1.2-2.6-3.7c-0.6-2.6-1.8-4.8-3.6-6.6L73.6,37.5z"/>
			<path class="st1" d="M131.7,15.9l6.9,0.4c1,0.1,1.5,0.4,1.5,0.8c0,0.4-0.4,0.7-1.3,1v5.4h4.5l3.6-2.5l5.7,3.6
				c0.6,0.3,0.9,0.7,0.9,1.2c0,0.5-0.3,0.8-0.9,0.9l-1,0.3c-3.7,4.2-7.5,7.6-11.4,10.2c-3.6,2.4-7.6,4.2-12.1,5.4
				c0.8,0.8,1.7,1.2,2.7,1.2H154v0.9c-1.3,0.7-2.1,2.6-2.2,5.6h-17.3c-1.6,0-3.1-0.6-4.5-1.8c-1.6-1.4-3.1-4.1-4.5-8l-2.1,9.7
				c0.2,0.8,0.4,1.4,0.4,1.8c0,0.3-0.2,0.5-0.6,0.6c-0.3,0-0.6-0.2-0.9-0.6l-4.3-5l6.1-7.9c0.4-0.7,0.8-1,1.2-1
				c0.3,0,0.6,0.4,0.9,1.3c0.2,0.8,0.5,1.4,0.9,2c3.4-1.9,6.3-4.2,8.9-7c2.6-2.7,5-6.1,7.1-10h-23l-0.4-1h11.9V15.9z"/>
			<path class="st1" d="M160.7,16.4l6.2,2.1h13.8l2.8-2.4l4.7,3c0.4,0.3,0.7,0.6,0.7,0.9c0,0.3-0.4,0.7-1.3,1.1v9.4l-4.6,0.6
				l1.9,0.1c1.1,0.1,1.7,0.3,1.7,0.7c0,0.4-0.5,0.9-1.6,1.3v5.4h0.9l2.7-3.3l4,3.3l-0.7,1h-6.9V51l-6.8,0.9V39.7h-6.7
				c-0.1,2.7-0.8,4.9-2.3,6.7c-1.9,2.1-5.6,3.9-11,5.4l-0.5-0.7c2.7-1.4,4.5-3,5.6-4.5c1-1.6,1.6-3.9,1.6-6.8H157l-0.4-1h8.2v-3.1
				c-2.9,0.3-5.3,0.5-7,0.5l-0.2-0.6c5.4-1.5,9.9-3.6,13.5-6.1l5.4,3.9c0.4,0.2,0.6,0.5,0.6,0.7c0,0.4-0.2,0.6-0.6,0.6
				c-0.2,0-0.6-0.1-1.2-0.3c-1.4,0.2-2.7,0.4-3.9,0.6v3.9h6.7v-8l2.8,0.2v-1.7H167V31l-6.3,0.9V16.4z M167,23.4h13.9v-3.9H167V23.4z
				 M167,28.2h13.9v-3.7H167V28.2z"/>
		</g>
		<path class="st1" d="M195.6,60.5H9V8.2h186.6V60.5z M10.3,59.2h184V9.5h-184V59.2z"/>
	</g>
</g>
</svg>
